<?xml version="1.0" encoding="utf-8"?>
<!-- Generator: Adobe Illustrator 18.0.0, SVG Export Plug-In . SVG Version: 6.00 Build 0)  -->
<!DOCTYPE svg PUBLIC "-//W3C//DTD SVG 1.1//EN" "http://www.w3.org/Graphics/SVG/1.1/DTD/svg11.dtd">
<svg version="1.1" id="Layer_1" xmlns="http://www.w3.org/2000/svg" xmlns:xlink="http://www.w3.org/1999/xlink" x="0px" y="0px"
	 viewBox="0 0 550 160" enable-background="new 0 0 550 160" xml:space="preserve">
<text transform="matrix(1 0 0 1 176.8326 94.9864)"><tspan x="0" y="0" fill="#2B579A" font-family="'SneakersPro-Medium'" font-size="36">Martin </tspan><tspan x="143" y="0" fill="#139F3E" font-family="'SneakersPro-Medium'" font-size="36">Sebastian</tspan></text>
<path fill="#999999" d="M66.9,115.6H41l16-45c0,0-35.2-16-40.5-34.7c32.2,11.6,57.6,3.1,71.6-4.4c3.9-2.1,8.4,1.7,6.9,5.9
	L66.9,115.6z"/>
<path fill="#DAA412" d="M104.8,115.6H78.9l33.5-93.8l19.2-3.1c3.7-0.6,6.6,3,5.4,6.4L104.8,115.6z"/>
<path fill="#2B579A" d="M142.8,118.6c0,0-5.3,14.3,10.7,29.7c-45.5,0.4-36.6-32.7-36.6-32.7L152.2,16l19.9-3.3
	c3.7-0.6,6.6,2.9,5.4,6.4L142.8,118.6z"/>
</svg>
